# xmcd
#
# Track frame offsets: 
#        150
#        27624
#        62924
#        78599
#        127898
#        200624
#        231111
#        273799
#        299374
#        306824
#
# Disc length: 4596 seconds
#
# Revision: 10
# Processed by: cddbd v1.5.2PL0 Copyright (c) Steve Scherf et al.
# Submitted via: ExactAudioCopy v1.3
#
DISCID=8f11f20a
DTITLE=Arthur Grumiaux (vln), Clara Haskil (pno) - Beethoven - Violin 
DTITLE=Sonatas III
DYEAR=1956
DGENRE=Chamber Music
TTITLE0=01. Violin Sonata in G major Op. 30 No. 3 - 1. Allegro assai
TTITLE1=02. Violin Sonata in G major Op. 30 No. 3 - 2. Tempo di menuet
TTITLE1=to
TTITLE2=03. Violin Sonata in G major Op. 30 No. 3 - 3. Allegro vivace
TTITLE3=04. Violin Sonata in A major Op. 47 ''Kreutzer'' - 1. Adagio s
TTITLE3=ostenuo-presto
TTITLE4=05. Violin Sonata in A major Op. 47 ''Kreutzer'' - 2. Andante 
TTITLE4=con variazioni 
TTITLE5=06. Violin Sonata in A major Op. 47 ''Kreutzer'' - 3. Finale,p
TTITLE5=resto
TTITLE6=07. Violin Sonata in G major Op. 96 - 1. Allegro moderato
TTITLE7=08. Violin Sonata in G major Op. 96 - 2. Adagio espressivo
TTITLE8=09. Violin Sonata in G major Op. 96 - 3. Scherzo, allegro
TTITLE9=10. Violin Sonata in G major Op. 96 - 4. Poco allegretto
EXTD=YEAR: 1956
EXTT0=
EXTT1=
EXTT2=
EXTT3=
EXTT4=
EXTT5=
EXTT6=
EXTT7=
EXTT8=
EXTT9=
PLAYORDER=
